PathFileType	4	(X/Y/Z)	OpenSim_Sub02_CSStiffKnee_Accel.trc
DataRate	CameraRate	NumFrames	NumMarkers	Units	OrigDataRate	OrigDataStartFrame	OrigNumFrames
100	100	17	8	m	100	1723	6891
Frame#	Time	torso_imu_offset_imu	pelvis_imu_offset_imu	tibia_r_imu_offset_imu	femur_r_imu_offset_imu	tibia_l_imu_offset_imu	femur_l_imu_offset_imu	toes_r_imu_offset_imu	toes_l_imu_offset_imu
				X1	Y1	Z1	X2	Y2	Z2	X3	Y3	Z3	X4	Y4	Z4	X5	Y5	Z5	X6	Y6	Z6	X7	Y7	Z7	X8		Y8	Z8	

1723	17.22000000	10.02721576	-1.63326720	6.77856020	10.58283312	-0.34324111	1.21263602	12.78047854	-2.39061707	3.12834225	10.35696863	-3.38589417	2.27231332	17.81058956	-24.16507821	8.27102153	10.83861993	-0.64908674	-0.72920569	5.57046040	-2.24104542	9.93071828	1.75266186	-8.55321191	18.82848909
1724	17.23000000	10.15049558	-1.11919444	7.26920480	11.11415475	-0.18089582	1.78969584	13.75162094	-2.57132701	4.10679812	11.03760030	-2.52369650	3.61297971	11.70921414	-24.14664609	7.05209973	11.67279023	-1.96367685	-0.05529308	5.31255752	-2.28579653	9.81704889	3.34185985	0.39562156	11.21821829
1725	17.24000000	9.09762145	-0.92619736	7.53169724	11.00307545	-0.19783236	2.29490904	14.12700326	-2.03788724	4.09618134	10.82695667	-1.54473167	4.06811983	0.81746393	-12.57519606	7.41680646	14.28659919	-4.40319310	-0.16440953	5.48113561	-1.66514502	9.58961459	3.28071290	3.31295714	12.65045235
1726	17.25000000	8.29301571	-0.87246889	8.13119005	10.65774566	-0.38708248	2.86736034	14.23815232	-1.19690304	2.84746143	9.95836657	-0.64498876	3.85072342	-0.99173317	-9.76498104	-3.11101415	13.93298081	-7.11458178	-2.44366994	7.02579743	-1.23610384	9.98350840	2.52250958	1.73727192	12.48748313
1727	17.26000000	8.18604690	-0.15607897	8.75925695	10.32125584	-0.14049329	3.60079668	14.61597284	-0.74691312	0.53958854	9.56005324	0.22280867	3.44248373	7.22297690	-5.27780343	2.17358339	10.99747304	-8.39407281	-4.03134721	8.02421386	-0.21509320	10.44277800	3.70414540	1.92985772	12.32404555
1728	17.27000000	8.07759971	0.83024055	8.81019155	9.73498970	-0.51881190	4.09303433	14.55841752	-0.17257533	-1.77216700	9.49523927	1.09290344	2.96777412	11.87874860	3.82667307	5.39157750	8.91358616	-7.10058161	-3.01047732	11.03328430	2.41959075	11.11354106	5.52382738	0.74654546	11.56912429
1729	17.28000000	7.55081326	1.61905432	8.52042170	9.30032395	-1.55521522	4.73252437	12.84682297	1.77135170	0.33104876	9.47392033	1.36729547	2.55636622	15.65118515	6.10062741	1.03237146	9.79496601	-3.16419349	-3.08982360	14.66093932	1.25157381	10.97263764	4.35429132	0.72673166	11.92907148
1730	17.29000000	7.03202627	1.97609890	8.27693607	9.27221430	-2.31246782	5.12779336	9.92252905	4.45110582	1.96565947	9.87552271	1.08482670	2.27210360	12.70868078	-0.89228775	3.52300249	9.37230084	-0.01394795	-2.91929837	19.31455620	2.55056576	12.66458206	5.41551583	0.51957031	11.59872653
1731	17.30000000	7.20920976	2.09631259	8.01782137	9.61398639	-2.87237721	5.15438257	7.20716651	7.61545285	2.52094054	11.03545305	1.06977078	2.43464939	8.23116643	-5.65635863	-1.25640230	9.07587823	1.16321041	-1.62614239	15.48151416	2.27905060	17.51526519	4.74665289	1.23877060	11.73632396
1732	17.31000000	8.09292721	2.05693645	7.90740010	10.08878644	-3.07395794	5.07248475	5.47200208	10.22729499	2.43805564	12.93740248	1.42074254	2.76909896	9.33222223	-4.90568079	-1.59726310	8.00113578	0.10348085	-1.18211008	8.52256194	0.75836199	27.37907052	4.07904115	0.86867774	11.81893163
1733	17.32000000	9.21279276	1.82630925	7.85863550	10.52272294	-2.76006061	4.82061337	5.51297957	11.35163582	1.99125845	15.12520838	2.00368154	2.48611590	9.90118970	-1.98695569	-2.71894890	8.61538964	-1.83360189	-1.75307595	1.26384486	-2.64210590	21.13040279	4.10708579	1.99912524	11.98306396
1734	17.33000000	10.10505674	1.36230560	8.02885287	10.87419738	-1.88119000	4.69580230	6.43196965	11.85396659	2.49421774	15.83547340	2.37060920	1.55400320	11.28321623	-0.48140465	-1.19664134	9.76357114	-3.25872014	-2.66571814	4.17198377	-9.12852370	19.27060349	3.69646956	2.30291271	12.20220235
1735	17.34000000	10.54281640	0.76543759	8.41338161	10.97136495	-0.95450539	4.50081589	6.01329753	13.52792392	5.45587430	14.55996303	1.46396227	0.89818705	11.93626372	-1.77967630	-0.44541661	10.32119734	-3.61244715	-3.48011529	0.77358149	-12.54628680	15.63545979	4.15621386	2.01809090	12.15999941
1736	17.35000000	10.66244408	0.20834330	8.60992233	10.89578200	-0.27609263	4.34701683	3.86236463	13.97322521	6.39471230	12.94335883	-0.31900661	0.49673376	12.19336735	-2.08580647	0.01772920	10.65922429	-2.67965043	-3.99877628	-0.69513360	-12.60084169	13.20260204	4.48767695	1.42709630	12.01115877
1737	17.36000000	10.57766937	-0.06612678	8.64039506	10.81905237	0.02308870	4.20032374	2.53194459	11.11591967	4.78302566	11.94901874	-2.22976130	0.31796305	12.03187945	-1.30514280	0.71446985	10.65720249	-1.17093907	-4.12577350	-3.33310208	-10.50447922	11.17213810	4.64312173	1.07967332	11.76048905
1738	17.37000000	10.26371829	0.08876339	8.65058877	10.63266355	-0.09779892	4.01386477	2.81589203	6.60746535	3.37211050	11.14863593	-3.82511864	0.72004439	11.05827350	-0.32656915	1.43717439	10.23868446	-1.02249835	-3.29708133	-4.38884951	-7.46749721	10.13689374	4.14138977	1.01008769	12.02848513
1739	17.38000000	9.91358151	0.43993891	8.47356309	10.38276811	-0.54888557	3.73853173	3.77600693	2.27344151	3.25404447	10.39186118	-4.66221599	1.36513691	10.23659715	0.23736277	1.84363625	10.34044413	-1.64126367	-2.51036284	-4.07022737	-5.19094952	10.20096985	4.32108594	0.89713042	11.92657700
